<svg width="409" height="409" viewBox="0 0 409 409" fill="none" xmlns="http://www.w3.org/2000/svg">
<path d="M204.5 398.775C204.5 404.422 199.919 409.027 194.279 408.744C157.42 406.9 121.677 395.109 90.8859 374.536C57.256 352.065 31.0448 320.126 15.5666 282.759C0.0884903 245.391 -3.96128 204.273 3.92941 164.604C11.8201 124.935 31.2968 88.4965 59.8967 59.8966C88.4965 31.2968 124.935 11.8201 164.604 3.9294C204.273 -3.96128 245.391 0.0885078 282.759 15.5666C320.126 31.0448 352.065 57.256 374.536 90.8859C395.109 121.677 406.9 157.42 408.744 194.279C409.027 199.919 404.422 204.5 398.775 204.5C393.128 204.5 388.58 199.919 388.266 194.28C386.442 161.468 375.858 129.675 357.532 102.247C337.308 71.9804 308.564 48.3903 274.933 34.46C241.302 20.5297 204.296 16.8849 168.594 23.9865C132.891 31.0881 100.097 48.6171 74.357 74.357C48.6172 100.097 31.0881 132.891 23.9865 168.594C16.8848 204.296 20.5297 241.302 34.46 274.933C48.3903 308.564 71.9804 337.308 102.247 357.532C129.675 375.858 161.468 386.442 194.28 388.266C199.918 388.58 204.5 393.128 204.5 398.775Z" fill="url(#paint0_radial_937_4198)"/>
<defs>
<radialGradient id="paint0_radial_937_4198" cx="0" cy="0" r="1" gradientUnits="userSpaceOnUse" gradientTransform="translate(235 184.5) rotate(125.614) scale(437.905)">
<stop stop-color="#fff"/>
<stop offset="1" stop-color="#fff" stop-opacity="0.1"/>
</radialGradient>
</defs>
</svg>
